<svg width="1600" height="1000" viewBox="0 0 1600 1000" xmlns="http://www.w3.org/2000/svg">
  <defs>
    <linearGradient id="sky" x1="0" y1="0" x2="0" y2="1">
      <stop offset="0%" stop-color="#0b1722"/>
      <stop offset="100%" stop-color="#0d2a35"/>
    </linearGradient>
    <linearGradient id="water" x1="0" y1="0" x2="1" y2="0">
      <stop offset="0%" stop-color="#155e75"/>
      <stop offset="100%" stop-color="#0f766e"/>
    </linearGradient>
    <radialGradient id="glow" cx="50%" cy="30%" r="60%">
      <stop offset="0%" stop-color="#34d399" stop-opacity="0.3"/>
      <stop offset="100%" stop-color="#34d399" stop-opacity="0"/>
    </radialGradient>
  </defs>
  <rect width="1600" height="1000" fill="url(#sky)"/>
  <rect width="1600" height="1000" fill="url(#glow)"/>
  <ellipse cx="1180" cy="220" rx="190" ry="190" fill="#d9f99d" opacity="0.08"/>
  <path d="M0 650 C250 580 390 760 630 690 S1080 580 1600 690 L1600 1000 L0 1000 Z" fill="#14532d" opacity="0.9"/>
  <path d="M0 760 C210 700 430 840 690 785 S1180 700 1600 790 L1600 1000 L0 1000 Z" fill="#166534" opacity="0.95"/>
  <path d="M0 820 C260 780 490 900 760 860 S1230 780 1600 850 L1600 1000 L0 1000 Z" fill="url(#water)" opacity="0.82"/>
  <g opacity="0.22">
    <circle cx="180" cy="130" r="3" fill="#fff"/><circle cx="320" cy="90" r="2" fill="#fff"/>
    <circle cx="520" cy="150" r="2" fill="#fff"/><circle cx="1330" cy="120" r="2" fill="#fff"/>
    <circle cx="1460" cy="180" r="3" fill="#fff"/>
  </g>
  <g transform="translate(1080 450)">
    <rect x="-8" y="70" width="16" height="180" rx="8" fill="#4b5563"/>
    <circle cx="0" cy="40" r="78" fill="#15803d" opacity="0.95"/>
    <circle cx="-56" cy="86" r="54" fill="#16a34a" opacity="0.9"/>
    <circle cx="58" cy="92" r="60" fill="#22c55e" opacity="0.9"/>
  </g>
</svg>
