<svg width="1600" height="1100" viewBox="0 0 1600 1100" xmlns="http://www.w3.org/2000/svg">
  <defs>
    <linearGradient id="bg" x1="0" y1="0" x2="1" y2="1">
      <stop offset="0%" stop-color="#03131a"/>
      <stop offset="45%" stop-color="#0b2a2f"/>
      <stop offset="100%" stop-color="#123a30"/>
    </linearGradient>
    <linearGradient id="water" x1="0" y1="0" x2="1" y2="0">
      <stop offset="0%" stop-color="#11c0e8" stop-opacity=".18"/>
      <stop offset="100%" stop-color="#38ef7d" stop-opacity=".11"/>
    </linearGradient>
  </defs>
  <rect width="1600" height="1100" fill="url(#bg)"/>
  <circle cx="1400" cy="160" r="150" fill="#22c55e" opacity=".08"/>
  <circle cx="1180" cy="250" r="100" fill="#06b6d4" opacity=".08"/>
  <circle cx="210" cy="150" r="120" fill="#22c55e" opacity=".06"/>
  <path d="M0 760 C260 700 440 840 700 790 C980 730 1220 890 1600 780 L1600 1100 L0 1100 Z" fill="url(#water)"/>
  <path d="M0 860 C260 820 520 980 860 900 C1140 840 1340 970 1600 900 L1600 1100 L0 1100 Z" fill="#0ea5e9" opacity=".08"/>
  <g opacity=".12">
    <rect x="150" y="420" width="26" height="220" rx="8" fill="#4c311f"/>
    <circle cx="163" cy="372" r="90" fill="#22c55e"/>
    <circle cx="106" cy="405" r="54" fill="#16a34a"/>
    <circle cx="222" cy="412" r="50" fill="#15803d"/>
  </g>
  <g opacity=".10">
    <rect x="1280" y="470" width="22" height="170" rx="8" fill="#4c311f"/>
    <circle cx="1291" cy="430" r="70" fill="#22c55e"/>
    <circle cx="1246" cy="456" r="42" fill="#16a34a"/>
    <circle cx="1335" cy="460" r="39" fill="#15803d"/>
  </g>
</svg>
