<svg xmlns="http://www.w3.org/2000/svg" viewBox="0 0 1200 800" role="img" aria-label="Communauté et dépôt textile"><rect width="1200" height="800" rx="32" fill="#eef6ef"/><rect x="760" y="166" width="184" height="270" rx="24" fill="#2d6042"/><rect x="790" y="208" width="124" height="70" rx="12" fill="#f5fbf5"/><path d="M852 304v84" stroke="#f5fbf5" stroke-width="12" stroke-linecap="round"/><circle cx="286" cy="320" r="72" fill="#f0dfe3"/><circle cx="286" cy="284" r="34" fill="#274b35"/><rect x="220" y="372" width="132" height="146" rx="34" fill="#7fb88b"/><circle cx="512" cy="332" r="72" fill="#d7ebdb"/><circle cx="512" cy="294" r="34" fill="#274b35"/><rect x="446" y="382" width="132" height="146" rx="34" fill="#8cc195"/><path d="M286 446l70-38 70 38-70 38z" fill="#ffffff" opacity=".75"/><path d="M512 454l74-42 74 42-74 42z" fill="#ffffff" opacity=".75"/><path d="M114 626c88-40 164-57 246-57 92 0 178 20 266 48 106 35 199 53 293 53 79 0 153-13 227-40v98H114z" fill="#c8dfcc"/><text x="120" y="148" fill="#244c34" font-family="Inter, Arial, sans-serif" font-size="54" font-weight="800">Des utilisateurs, des bennes, des avis</text><text x="120" y="212" fill="#486455" font-family="Inter, Arial, sans-serif" font-size="28">Une plateforme plus lisible avec une communauté visible et des retours d’expérience.</text></svg>