<svg xmlns="http://www.w3.org/2000/svg" width="512" height="512" viewBox="0 0 512 512">
  <defs><linearGradient id="g" x1="0" y1="0" x2="1" y2="1"><stop offset="0" stop-color="#7dd3fc"/><stop offset="1" stop-color="#86efac"/></linearGradient></defs>
  <rect x="56" y="56" width="400" height="400" rx="120" fill="url(#g)"/>
  <path d="M188 256c0-44 36-80 80-80h40v40h-40c-22 0-40 18-40 40s18 40 40 40h96v40h-96c-44 0-80-36-80-80Z" fill="#0b0b0c" opacity="0.92"/>
  <path d="M324 256c0 44-36 80-80 80h-40v-40h40c22 0 40-18 40-40s-18-40-40-40H148v-40h96c44 0 80 36 80 80Z" fill="#0b0b0c" opacity="0.62"/>
</svg>