<svg xmlns="http://www.w3.org/2000/svg" width="256" height="256" viewBox="0 0 256 256">
  <defs>
    <linearGradient id="g" x1="0" y1="0" x2="1" y2="1">
      <stop offset="0" stop-color="#7dd3fc"/>
      <stop offset="1" stop-color="#86efac"/>
    </linearGradient>
  </defs>
  <rect x="24" y="24" width="208" height="208" rx="56" fill="url(#g)"/>
  <path d="M86 128c0-23 19-42 42-42h18v18h-18c-13 0-24 11-24 24s11 24 24 24h38v18h-38c-23 0-42-19-42-42Z" fill="#0b0b0c" opacity="0.92"/>
  <path d="M170 128c0 23-19 42-42 42h-18v-18h18c13 0 24-11 24-24s-11-24-24-24H90V86h38c23 0 42 19 42 42Z" fill="#0b0b0c" opacity="0.65"/>
</svg>
