<svg xmlns="http://www.w3.org/2000/svg" viewBox="0 0 1200 800" role="img" aria-label="Nature et collecte textile"><defs><linearGradient id="g" x1="0" y1="0" x2="1" y2="1"><stop offset="0" stop-color="#eef8ef"/><stop offset="1" stop-color="#dfeee2"/></linearGradient></defs><rect width="1200" height="800" rx="32" fill="url(#g)"/><circle cx="1010" cy="140" r="92" fill="#d8eadb"/><circle cx="1080" cy="215" r="38" fill="#f0dfe3"/><path d="M140 620c75-70 154-116 244-116 72 0 145 23 221 62 74 38 153 61 232 61 86 0 166-27 243-77v126H140z" fill="#b9d6bf"/><path d="M298 548c44-130 141-218 274-218 118 0 202 61 271 171" fill="none" stroke="#2f7d48" stroke-width="24" stroke-linecap="round"/><path d="M302 546c-11-90-69-127-154-142 14 83 55 145 154 142z" fill="#6fb37b"/><path d="M844 503c80-25 129-82 155-169-92 9-156 59-155 169z" fill="#78b980"/><rect x="392" y="240" width="160" height="214" rx="24" fill="#27543a"/><rect x="420" y="270" width="104" height="62" rx="12" fill="#eef8ef"/><path d="M472 352v70" stroke="#eef8ef" stroke-width="12" stroke-linecap="round"/><path d="M822 506h112" stroke="#27543a" stroke-width="14" stroke-linecap="round"/><circle cx="820" cy="506" r="34" fill="#27543a"/><path d="M808 500c22-34 50-49 83-46" fill="none" stroke="#eef8ef" stroke-width="7" stroke-linecap="round"/><text x="120" y="155" fill="#244c34" font-family="Inter, Arial, sans-serif" font-size="54" font-weight="800">Collecte locale &amp; impact visible</text><text x="120" y="220" fill="#486455" font-family="Inter, Arial, sans-serif" font-size="28">Une interface inspirée par la nature pour valoriser le réemploi textile.</text></svg>